<svg id="visual" viewBox="0 0 960 540" width="960" height="540" xmlns="http://www.w3.org/2000/svg" xmlns:xlink="http://www.w3.org/1999/xlink" version="1.1"><rect x="0" y="0" width="960" height="540" fill="#001220"></rect><path d="M0 75L40 78.3C80 81.7 160 88.3 240 93.3C320 98.3 400 101.7 480 104.8C560 108 640 111 720 108.7C800 106.3 880 98.7 920 94.8L960 91L960 0L920 0C880 0 800 0 720 0C640 0 560 0 480 0C400 0 320 0 240 0C160 0 80 0 40 0L0 0Z" fill="#086788"></path><path d="M0 83L40 77.3C80 71.7 160 60.3 240 55.3C320 50.3 400 51.7 480 52.3C560 53 640 53 720 55.5C800 58 880 63 920 65.5L960 68L960 0L920 0C880 0 800 0 720 0C640 0 560 0 480 0C400 0 320 0 240 0C160 0 80 0 40 0L0 0Z" fill="#00aa7c"></path><path d="M0 47L40 48.2C80 49.3 160 51.7 240 48C320 44.3 400 34.7 480 31.7C560 28.7 640 32.3 720 32.8C800 33.3 880 30.7 920 29.3L960 28L960 0L920 0C880 0 800 0 720 0C640 0 560 0 480 0C400 0 320 0 240 0C160 0 80 0 40 0L0 0Z" fill="#f0c808"></path></svg>