<svg id="visual" viewBox="0 0 960 150" width="960" height="150" xmlns="http://www.w3.org/2000/svg" xmlns:xlink="http://www.w3.org/1999/xlink" version="1.1"><rect x="0" y="0" width="960" height="150" fill="#181818"></rect><path d="M0 118L22.8 115.2C45.7 112.3 91.3 106.7 137 100.7C182.7 94.7 228.3 88.3 274 88C319.7 87.7 365.3 93.3 411.2 100.7C457 108 503 117 548.8 116.7C594.7 116.3 640.3 106.7 686 107.3C731.7 108 777.3 119 823 121.8C868.7 124.7 914.3 119.3 937.2 116.7L960 114L960 0L937.2 0C914.3 0 868.7 0 823 0C777.3 0 731.7 0 686 0C640.3 0 594.7 0 548.8 0C503 0 457 0 411.2 0C365.3 0 319.7 0 274 0C228.3 0 182.7 0 137 0C91.3 0 45.7 0 22.8 0L0 0Z" fill="#0284c7"></path><path d="M0 59L22.8 59.3C45.7 59.7 91.3 60.3 137 61.3C182.7 62.3 228.3 63.7 274 68.3C319.7 73 365.3 81 411.2 79.7C457 78.3 503 67.7 548.8 66.7C594.7 65.7 640.3 74.3 686 81.7C731.7 89 777.3 95 823 91.8C868.7 88.7 914.3 76.3 937.2 70.2L960 64L960 0L937.2 0C914.3 0 868.7 0 823 0C777.3 0 731.7 0 686 0C640.3 0 594.7 0 548.8 0C503 0 457 0 411.2 0C365.3 0 319.7 0 274 0C228.3 0 182.7 0 137 0C91.3 0 45.7 0 22.8 0L0 0Z" fill="#20639f"></path><path d="M0 68L22.8 67.5C45.7 67 91.3 66 137 66.2C182.7 66.3 228.3 67.7 274 64.8C319.7 62 365.3 55 411.2 52.2C457 49.3 503 50.7 548.8 51.5C594.7 52.3 640.3 52.7 686 55C731.7 57.3 777.3 61.7 823 64.3C868.7 67 914.3 68 937.2 68.5L960 69L960 0L937.2 0C914.3 0 868.7 0 823 0C777.3 0 731.7 0 686 0C640.3 0 594.7 0 548.8 0C503 0 457 0 411.2 0C365.3 0 319.7 0 274 0C228.3 0 182.7 0 137 0C91.3 0 45.7 0 22.8 0L0 0Z" fill="#224577"></path><path d="M0 27L22.8 28C45.7 29 91.3 31 137 29.5C182.7 28 228.3 23 274 22.7C319.7 22.3 365.3 26.7 411.2 31C457 35.3 503 39.7 548.8 36.8C594.7 34 640.3 24 686 21.3C731.7 18.7 777.3 23.3 823 22.7C868.7 22 914.3 16 937.2 13L960 10L960 0L937.2 0C914.3 0 868.7 0 823 0C777.3 0 731.7 0 686 0C640.3 0 594.7 0 548.8 0C503 0 457 0 411.2 0C365.3 0 319.7 0 274 0C228.3 0 182.7 0 137 0C91.3 0 45.7 0 22.8 0L0 0Z" fill="#1b2951"></path></svg>