<svg id="visual" viewBox="0 0 960 300" width="960" height="300" xmlns="http://www.w3.org/2000/svg" xmlns:xlink="http://www.w3.org/1999/xlink" version="1.1"><rect x="0" y="0" width="960" height="300" fill="#181818"></rect><path d="M0 138L22.8 144C45.7 150 91.3 162 137 162.7C182.7 163.3 228.3 152.7 274 145.8C319.7 139 365.3 136 411.2 137.2C457 138.3 503 143.7 548.8 145.8C594.7 148 640.3 147 686 141.8C731.7 136.7 777.3 127.3 823 127.3C868.7 127.3 914.3 136.7 937.2 141.3L960 146L960 301L937.2 301C914.3 301 868.7 301 823 301C777.3 301 731.7 301 686 301C640.3 301 594.7 301 548.8 301C503 301 457 301 411.2 301C365.3 301 319.7 301 274 301C228.3 301 182.7 301 137 301C91.3 301 45.7 301 22.8 301L0 301Z" fill="#0284c7"></path><path d="M0 173L22.8 178C45.7 183 91.3 193 137 195.2C182.7 197.3 228.3 191.7 274 187C319.7 182.3 365.3 178.7 411.2 180.5C457 182.3 503 189.7 548.8 197.3C594.7 205 640.3 213 686 209.7C731.7 206.3 777.3 191.7 823 190.8C868.7 190 914.3 203 937.2 209.5L960 216L960 301L937.2 301C914.3 301 868.7 301 823 301C777.3 301 731.7 301 686 301C640.3 301 594.7 301 548.8 301C503 301 457 301 411.2 301C365.3 301 319.7 301 274 301C228.3 301 182.7 301 137 301C91.3 301 45.7 301 22.8 301L0 301Z" fill="#20639f"></path><path d="M0 243L22.8 236.2C45.7 229.3 91.3 215.7 137 211.3C182.7 207 228.3 212 274 217.7C319.7 223.3 365.3 229.7 411.2 228C457 226.3 503 216.7 548.8 214.2C594.7 211.7 640.3 216.3 686 216.2C731.7 216 777.3 211 823 212.8C868.7 214.7 914.3 223.3 937.2 227.7L960 232L960 301L937.2 301C914.3 301 868.7 301 823 301C777.3 301 731.7 301 686 301C640.3 301 594.7 301 548.8 301C503 301 457 301 411.2 301C365.3 301 319.7 301 274 301C228.3 301 182.7 301 137 301C91.3 301 45.7 301 22.8 301L0 301Z" fill="#224577"></path><path d="M0 251L22.8 247.2C45.7 243.3 91.3 235.7 137 235.5C182.7 235.3 228.3 242.7 274 246.3C319.7 250 365.3 250 411.2 247.7C457 245.3 503 240.7 548.8 239.7C594.7 238.7 640.3 241.3 686 246.2C731.7 251 777.3 258 823 260C868.7 262 914.3 259 937.2 257.5L960 256L960 301L937.2 301C914.3 301 868.7 301 823 301C777.3 301 731.7 301 686 301C640.3 301 594.7 301 548.8 301C503 301 457 301 411.2 301C365.3 301 319.7 301 274 301C228.3 301 182.7 301 137 301C91.3 301 45.7 301 22.8 301L0 301Z" fill="#1b2951"></path></svg>