<svg id="visual" viewBox="0 0 960 150" width="960" height="150" xmlns="http://www.w3.org/2000/svg" xmlns:xlink="http://www.w3.org/1999/xlink" version="1.1"><rect x="0" y="0" width="960" height="150" fill="#181818"></rect><path d="M0 53L22.8 50.5C45.7 48 91.3 43 137 44.2C182.7 45.3 228.3 52.7 274 56.2C319.7 59.7 365.3 59.3 411.2 57.2C457 55 503 51 548.8 46.2C594.7 41.3 640.3 35.7 686 35.3C731.7 35 777.3 40 823 43C868.7 46 914.3 47 937.2 47.5L960 48L960 151L937.2 151C914.3 151 868.7 151 823 151C777.3 151 731.7 151 686 151C640.3 151 594.7 151 548.8 151C503 151 457 151 411.2 151C365.3 151 319.7 151 274 151C228.3 151 182.7 151 137 151C91.3 151 45.7 151 22.8 151L0 151Z" fill="#0284c7"></path><path d="M0 60L22.8 60C45.7 60 91.3 60 137 65.5C182.7 71 228.3 82 274 83.3C319.7 84.7 365.3 76.3 411.2 76.3C457 76.3 503 84.7 548.8 82.8C594.7 81 640.3 69 686 66.5C731.7 64 777.3 71 823 75.3C868.7 79.7 914.3 81.3 937.2 82.2L960 83L960 151L937.2 151C914.3 151 868.7 151 823 151C777.3 151 731.7 151 686 151C640.3 151 594.7 151 548.8 151C503 151 457 151 411.2 151C365.3 151 319.7 151 274 151C228.3 151 182.7 151 137 151C91.3 151 45.7 151 22.8 151L0 151Z" fill="#20639f"></path><path d="M0 117L22.8 115.3C45.7 113.7 91.3 110.3 137 106.5C182.7 102.7 228.3 98.3 274 93C319.7 87.7 365.3 81.3 411.2 83.5C457 85.7 503 96.3 548.8 103.3C594.7 110.3 640.3 113.7 686 109.7C731.7 105.7 777.3 94.3 823 92.2C868.7 90 914.3 97 937.2 100.5L960 104L960 151L937.2 151C914.3 151 868.7 151 823 151C777.3 151 731.7 151 686 151C640.3 151 594.7 151 548.8 151C503 151 457 151 411.2 151C365.3 151 319.7 151 274 151C228.3 151 182.7 151 137 151C91.3 151 45.7 151 22.8 151L0 151Z" fill="#224577"></path><path d="M0 130L22.8 130C45.7 130 91.3 130 137 124.8C182.7 119.7 228.3 109.3 274 107.2C319.7 105 365.3 111 411.2 115C457 119 503 121 548.8 118.2C594.7 115.3 640.3 107.7 686 104.2C731.7 100.7 777.3 101.3 823 107C868.7 112.7 914.3 123.3 937.2 128.7L960 134L960 151L937.2 151C914.3 151 868.7 151 823 151C777.3 151 731.7 151 686 151C640.3 151 594.7 151 548.8 151C503 151 457 151 411.2 151C365.3 151 319.7 151 274 151C228.3 151 182.7 151 137 151C91.3 151 45.7 151 22.8 151L0 151Z" fill="#1b2951"></path></svg>