<svg id="visual" viewBox="0 0 960 300" width="960" height="300" xmlns="http://www.w3.org/2000/svg" xmlns:xlink="http://www.w3.org/1999/xlink" version="1.1"><rect x="0" y="0" width="960" height="300" fill="#181818"></rect><path d="M0 200L22.8 206.3C45.7 212.7 91.3 225.3 137 233.8C182.7 242.3 228.3 246.7 274 240C319.7 233.3 365.3 215.7 411.2 215.8C457 216 503 234 548.8 242.7C594.7 251.3 640.3 250.7 686 243.3C731.7 236 777.3 222 823 221.2C868.7 220.3 914.3 232.7 937.2 238.8L960 245L960 301L937.2 301C914.3 301 868.7 301 823 301C777.3 301 731.7 301 686 301C640.3 301 594.7 301 548.8 301C503 301 457 301 411.2 301C365.3 301 319.7 301 274 301C228.3 301 182.7 301 137 301C91.3 301 45.7 301 22.8 301L0 301Z" fill="#0284c7" stroke-linecap="round" stroke-linejoin="miter"></path></svg>